<svg width="18" height="12" viewBox="0 0 18 12" fill="none" xmlns="http://www.w3.org/2000/svg">
<path fill-rule="evenodd" clip-rule="evenodd" d="M1.66663 7.33341H2.66663C3.21891 7.33341 3.66663 7.78113 3.66663 8.33341V10.3334C3.66663 10.8857 3.21891 11.3334 2.66663 11.3334H1.66663C1.11434 11.3334 0.666626 10.8857 0.666626 10.3334V8.33341C0.666626 7.78113 1.11434 7.33341 1.66663 7.33341ZM6.33329 5.33341H7.33329C7.88558 5.33341 8.33329 5.78113 8.33329 6.33341V10.3334C8.33329 10.8857 7.88558 11.3334 7.33329 11.3334H6.33329C5.78101 11.3334 5.33329 10.8857 5.33329 10.3334V6.33341C5.33329 5.78113 5.78101 5.33341 6.33329 5.33341ZM11 3.00008H12C12.5522 3.00008 13 3.4478 13 4.00008V10.3334C13 10.8857 12.5522 11.3334 12 11.3334H11C10.4477 11.3334 9.99996 10.8857 9.99996 10.3334V4.00008C9.99996 3.4478 10.4477 3.00008 11 3.00008ZM15.6666 0.666748H16.6666C17.2189 0.666748 17.6666 1.11446 17.6666 1.66675V10.3334C17.6666 10.8857 17.2189 11.3334 16.6666 11.3334H15.6666C15.1143 11.3334 14.6666 10.8857 14.6666 10.3334V1.66675C14.6666 1.11446 15.1143 0.666748 15.6666 0.666748Z" fill="#060606"/>
</svg>
